<svg width="738" height="654" viewBox="0 0 738 654" fill="none" xmlns="http://www.w3.org/2000/svg">
<path fill-rule="evenodd" clip-rule="evenodd" d="M79.923 0L379.733 468.241L659.33 0H737.111L621.249 211.011C684.216 242.332 727.483 307.327 727.483 382.427C727.483 488.1 641.818 573.764 536.146 573.764C499.93 573.764 466.064 563.703 437.191 546.222L378.228 653.607L317.18 547.97C288.96 564.372 256.162 573.764 221.171 573.764C115.498 573.764 29.8337 488.1 29.8337 382.427C29.8337 311.535 68.3884 249.647 125.674 216.588L0.506836 0H79.923ZM284.571 491.544L158.282 273.014C120.457 294.802 94.9933 335.641 94.9933 382.427C94.9933 452.113 151.485 508.605 221.171 508.605C244.282 508.605 265.942 502.391 284.571 491.544ZM589.841 268.212L468.599 489.021C488.128 501.423 511.298 508.605 536.146 508.605C605.831 508.605 662.323 452.113 662.323 382.427C662.323 331.944 632.675 288.385 589.841 268.212Z" fill="black"/>
<path fill-rule="evenodd" clip-rule="evenodd" d="M127.101 0L378.554 392.717L613.055 0H528.135L505.177 41.5371C472.503 15.536 431.13 0 386.128 0C334.614 0 287.855 20.3574 253.457 53.4662L222.822 0H127.101ZM378.228 271.225L472.974 99.8021C450.352 78.3322 419.778 65.1597 386.128 65.1597C346.162 65.1597 310.536 83.741 287.417 112.736L378.228 271.225Z" fill="black"/>
</svg>
